<?xml version="1.0" standalone="no"?>
<!DOCTYPE svg PUBLIC "-//W3C//DTD SVG 20010904//EN"
 "http://www.w3.org/TR/2001/REC-SVG-20010904/DTD/svg10.dtd">
<svg version="1.0" xmlns="http://www.w3.org/2000/svg"
 width="180.000000pt" height="180.000000pt" viewBox="0 0 180.000000 180.000000"
 preserveAspectRatio="xMidYMid meet">
<metadata>
Created by potrace 1.11, written by Peter Selinger 2001-2013
</metadata>
<g transform="translate(0.000000,180.000000) scale(0.100000,-0.100000)"
fill="#000000" stroke="none">
<path d="M390 1390 c-69 -8 -140 -27 -202 -54 -21 -9 -58 -16 -83 -16 l-46 0
3 -37 c2 -27 9 -41 25 -49 41 -20 63 -46 68 -83 27 -173 49 -235 101 -281 89
-78 303 -89 434 -22 73 37 111 98 134 219 20 97 36 123 76 123 45 0 59 -20 79
-115 25 -114 33 -135 70 -178 89 -100 323 -125 465 -49 68 36 102 102 125 243
17 100 19 105 52 126 54 36 60 43 57 71 -3 25 -8 28 -58 33 -30 4 -87 18 -126
32 -90 34 -223 49 -317 37 -81 -10 -130 -26 -201 -64 -43 -23 -61 -26 -145
-26 -87 0 -101 3 -151 29 -104 55 -232 77 -360 61z m209 -105 c108 -14 137
-52 128 -168 -10 -127 -50 -184 -148 -207 -93 -23 -236 4 -271 51 -36 48 -65
261 -40 292 13 15 98 35 172 40 48 3 88 1 159 -8z m868 -6 c78 -15 87 -28 79
-115 -9 -98 -33 -184 -58 -211 -32 -34 -84 -47 -183 -48 -155 0 -207 46 -227
205 -13 95 -1 126 57 155 64 31 210 37 332 14z"/>
<path d="M532 1234 c-74 -51 -77 -201 -5 -264 43 -38 75 -35 114 11 44 50 52
135 20 206 -29 62 -81 81 -129 47z"/>
<path d="M1170 1222 c-73 -73 -55 -237 29 -272 42 -17 87 9 112 63 63 140 -47
303 -141 209z"/>
<path d="M430 601 c0 -42 105 -148 201 -204 62 -36 69 -35 69 14 0 41 0 41 33
35 17 -4 58 -9 90 -13 l57 -6 0 -88 c0 -82 2 -89 20 -89 18 0 20 7 20 89 l0
88 58 6 c31 4 72 9 90 13 32 6 32 6 32 -35 0 -24 5 -41 12 -41 16 0 95 47 142
84 78 63 143 166 104 166 -7 0 -61 -25 -121 -54 -125 -64 -219 -88 -337 -88
-118 0 -212 24 -337 88 -60 29 -114 54 -120 54 -7 0 -13 -8 -13 -19z"/>
</g>
</svg>
